<svg xmlns="http://www.w3.org/2000/svg" xmlns:xlink="http://www.w3.org/1999/xlink" width="600" height="490" fill="none" viewBox="0 0 600 490"><radialGradient id="a" cx="0" cy="0" r="1" gradientTransform="matrix(-599.99944743 -562.00012499 562.00012499 -599.99944743 600 562)" gradientUnits="userSpaceOnUse"><stop offset="0" stop-color="#fed4c9"/><stop offset=".126" stop-color="#f8dbf4"/><stop offset=".411" stop-color="#d8dbff"/><stop offset=".629" stop-color="#c4ddff"/><stop offset="1" stop-color="#cae9ff"/></radialGradient><linearGradient id="b"><stop offset="0" stop-color="#fff"/><stop offset="1" stop-color="#fff" stop-opacity="0"/></linearGradient><linearGradient id="c" x1="300" x2="158" y1="50" y2="50" gradientUnits="userSpaceOnUse" xlink:href="#b"/><linearGradient id="d" x1="190" x2="424" y1="190" y2="190" gradientUnits="userSpaceOnUse" xlink:href="#b"/><linearGradient id="e" x1="450" x2="216" y1="330" y2="330" gradientUnits="userSpaceOnUse" xlink:href="#b"/><path fill="url(#a)" d="m0 0h600v490h-600z" transform="matrix(-1 0 0 -1 600 490)"/><g fill="#fff" fill-rule="evenodd" clip-rule="evenodd"><path d="m48.5 245c0-31.204 25.2959-56.5 56.5-56.5h390c31.204 0 56.5 25.296 56.5 56.5s-25.296 56.5-56.5 56.5h-390c-31.2041 0-56.5-25.296-56.5-56.5zm500 0c0-29.547-23.953-53.5-53.5-53.5h-390c-29.5472 0-53.5 23.953-53.5 53.5s23.9528 53.5 53.5 53.5h390c29.547 0 53.5-23.953 53.5-53.5z"/><path d="m48.5 105c0-31.2041 25.2959-56.5 56.5-56.5h390c31.204 0 56.5 25.2959 56.5 56.5 0 31.204-25.296 56.5-56.5 56.5h-390c-31.2041 0-56.5-25.296-56.5-56.5zm500 0c0-29.5472-23.953-53.5-53.5-53.5h-390c-29.5472 0-53.5 23.9528-53.5 53.5 0 29.547 23.9528 53.5 53.5 53.5h390c29.547 0 53.5-23.953 53.5-53.5z"/><path d="m48.5 385c0-31.204 25.2959-56.5 56.5-56.5h390c31.204 0 56.5 25.296 56.5 56.5s-25.296 56.5-56.5 56.5h-390c-31.2041 0-56.5-25.296-56.5-56.5zm500 0c0-29.547-23.953-53.5-53.5-53.5h-390c-29.5472 0-53.5 23.953-53.5 53.5s23.9528 53.5 53.5 53.5h390c29.547 0 53.5-23.953 53.5-53.5z"/></g><path fill="url(#c)" d="m158 50h142v110h-142z" opacity=".75"/><path fill="url(#d)" d="m424 190h-234v110h234z" opacity=".75"/><path fill="url(#e)" d="m216 330h234v110h-234z" opacity=".75"/><path fill="#fff" d="m355 105c0 30.376-24.624 55-55 55s-55-24.624-55-55c0-30.3757 24.624-55 55-55s55 24.6243 55 55z"/><path fill="#fff" d="m135 245c0 30.376 24.624 55 55 55s55-24.624 55-55-24.624-55-55-55-55 24.624-55 55z"/><path fill="#fff" d="m505 385c0 30.376-24.624 55-55 55s-55-24.624-55-55 24.624-55 55-55 55 24.624 55 55z"/><g fill-rule="evenodd" clip-rule="evenodd"><path fill="#d1dcff" d="m300 67.5c-20.711 0-37.5 16.7893-37.5 37.5 0 20.711 16.789 37.5 37.5 37.5s37.5-16.789 37.5-37.5c0-20.7107-16.789-37.5-37.5-37.5zm-40.5 37.5c0-22.3675 18.132-40.5 40.5-40.5s40.5 18.1325 40.5 40.5c0 22.368-18.132 40.5-40.5 40.5s-40.5-18.132-40.5-40.5z"/><path fill="#d1dcff" d="m190 207.5c20.711 0 37.5 16.789 37.5 37.5s-16.789 37.5-37.5 37.5-37.5-16.789-37.5-37.5 16.789-37.5 37.5-37.5zm40.5 37.5c0-22.368-18.132-40.5-40.5-40.5s-40.5 18.132-40.5 40.5 18.132 40.5 40.5 40.5 40.5-18.132 40.5-40.5z"/><path fill="#d1dcff" d="m450 347.5c-20.711 0-37.5 16.789-37.5 37.5s16.789 37.5 37.5 37.5 37.5-16.789 37.5-37.5-16.789-37.5-37.5-37.5zm-40.5 37.5c0-22.368 18.132-40.5 40.5-40.5s40.5 18.132 40.5 40.5-18.132 40.5-40.5 40.5-40.5-18.132-40.5-40.5z"/></g></svg>